<?xml version="1.0" encoding="utf-8"?>
<!-- Generator: Adobe Illustrator 17.1.0, SVG Export Plug-In . SVG Version: 6.00 Build 0)  -->
<!DOCTYPE svg PUBLIC "-//W3C//DTD SVG 1.1//EN" "http://www.w3.org/Graphics/SVG/1.1/DTD/svg11.dtd">
<svg version="1.1" id="Layer_1" xmlns="http://www.w3.org/2000/svg" xmlns:xlink="http://www.w3.org/1999/xlink" x="0px" y="0px"
	 viewBox="0 0 566.93 566.93" enable-background="new 0 0 566.93 566.93" xml:space="preserve">
<path fill="#231F20" d="M394.318,404.767c0-128.682-59.69-272.093-110.853-396.124c-51.163,124.031-110.853,267.442-110.853,396.124
	c0,21.705,0,72.093,0,72.093l40.31,17.829l-27.907,46.512h98.45h98.45l-27.907-46.512l40.31-17.829
	C394.318,476.86,394.318,426.473,394.318,404.767z"/>
<g>
	<path fill="#FFFFFF" d="M198.214,426.83v14.781h17.087V426.83h4.612v35.327h-4.612v-16.562h-17.087v16.562h-4.56V426.83H198.214z"
		/>
	<path fill="#FFFFFF" d="M232.384,426.83v20.913c0,7.915,3.512,11.27,8.229,11.27c5.241,0,8.596-3.46,8.596-11.27V426.83h4.613
		v20.599c0,10.85-5.713,15.305-13.366,15.305c-7.233,0-12.684-4.141-12.684-15.095V426.83H232.384z"/>
	<path fill="#FFFFFF" d="M261.73,462.157V426.83h4.979l11.321,17.873c2.621,4.141,4.665,7.862,6.342,11.479l0.105-0.052
		c-0.42-4.718-0.524-9.016-0.524-14.519V426.83h4.298v35.327h-4.612l-11.217-17.926c-2.463-3.931-4.822-7.967-6.604-11.793
		l-0.157,0.053c0.263,4.455,0.367,8.7,0.367,14.57v15.096H261.73z"/>
	<path fill="#FFFFFF" d="M323.103,460.585c-2.044,0.733-6.08,1.939-10.85,1.939c-5.347,0-9.749-1.363-13.209-4.665
		c-3.04-2.936-4.927-7.652-4.927-13.156c0.053-10.535,7.286-18.24,19.131-18.24c4.089,0,7.286,0.892,8.806,1.625l-1.101,3.722
		c-1.887-0.839-4.245-1.52-7.81-1.52c-8.596,0-14.204,5.346-14.204,14.204c0,8.962,5.398,14.256,13.628,14.256
		c2.987,0,5.031-0.419,6.08-0.943v-10.535h-7.181v-3.669h11.636V460.585z"/>
	<path fill="#FFFFFF" d="M330.069,427.302c2.307-0.472,5.608-0.733,8.753-0.733c4.875,0,8.02,0.891,10.221,2.883
		c1.782,1.572,2.778,3.983,2.778,6.709c0,4.665-2.936,7.757-6.656,9.015v0.157c2.725,0.943,4.35,3.46,5.188,7.129
		c1.153,4.927,1.992,8.334,2.726,9.696h-4.717c-0.577-0.996-1.363-4.036-2.359-8.438c-1.048-4.875-2.935-6.709-7.075-6.866h-4.298
		v15.305h-4.561V427.302z M334.63,443.393h4.664c4.875,0,7.967-2.673,7.967-6.709c0-4.56-3.302-6.552-8.124-6.604
		c-2.201,0-3.773,0.21-4.507,0.419V443.393z"/>
	<path fill="#FFFFFF" d="M365.551,462.157v-14.99l-11.164-20.337h5.188l4.979,9.749c1.363,2.673,2.411,4.822,3.512,7.286h0.104
		c0.996-2.307,2.202-4.613,3.564-7.286l5.084-9.749h5.189l-11.846,20.284v15.043H365.551z"/>
</g>
<g>
</g>
<g>
</g>
<g>
</g>
<g>
</g>
<g>
</g>
<g>
</g>
</svg>
