<?xml version="1.0" encoding="utf-8"?>
<!-- Generator: Adobe Illustrator 16.0.0, SVG Export Plug-In . SVG Version: 6.00 Build 0)  -->
<!DOCTYPE svg PUBLIC "-//W3C//DTD SVG 1.1//EN" "http://www.w3.org/Graphics/SVG/1.1/DTD/svg11.dtd">
<svg version="1.1" id="Trace" xmlns="http://www.w3.org/2000/svg" xmlns:xlink="http://www.w3.org/1999/xlink" x="0px" y="0px"
	 width="566.93px" height="694.488px" viewBox="0 0 566.93 694.488" enable-background="new 0 0 566.93 694.488"
	 xml:space="preserve">
<path fill="#C1C2C2" d="M283.464,439.369c-42.519,18.426-56.692,66.614-56.692,85.04s35.433,94.96,56.692,113.386
	c21.26-18.425,56.693-94.961,56.693-113.386S325.984,457.795,283.464,439.369z"/>
<path fill="#D8D8D8" d="M284,70.866c70.331,0,141.197,135.658,141.197,244.995c0,52.643,0,66.815-0.001,82.002
	c-0.004,55.68-70.866,154.894-141.731,154.893c-70.866-0.001-141.732-85.039-141.733-154.893c0-15.187,0,27.335,0-82.002
	C141.733,206.523,213.669,70.866,284,70.866z"/>
<rect x="141.732" y="311.811" fill="#6B86C4" width="283.464" height="85.039"/>
<rect x="141.733" y="340.158" fill="#F26922" width="283.464" height="28.345"/>
<path fill="#6B86C4" d="M283.464,85.04c67.07,0,134.138,127.559,0,127.559C149.327,212.599,216.396,85.04,283.464,85.04z"/>
<path fill="#95B3DE" d="M324.653,113.937c37.43,29.676,0,59.354-37.426,29.676C249.8,113.937,287.224,84.259,324.653,113.937z"/>
<path fill="#C1C2C2" d="M184.251,439.369c-42.519,18.426-56.692,66.614-56.692,85.04c0,56.692,35.433,94.96,56.692,113.386
	c21.26-18.425,28.347-70.867,56.693-113.386C251.165,509.079,226.771,457.795,184.251,439.369z"/>
<path fill="#C1C2C2" d="M382.677,439.369c-42.52,18.426-66.913,69.709-56.692,85.04c28.347,42.519,35.433,94.96,56.692,113.386
	c21.26-18.425,56.693-56.693,56.693-113.386C439.37,505.984,425.196,457.795,382.677,439.369z"/>
<g>
</g>
<g>
</g>
<g>
</g>
<g>
</g>
<g>
</g>
<g>
</g>
</svg>
